#!OML:ASF E:\motion texture\Top Level 1\Subject 1\Session 1\male.ASF
:FULLY-SPECIFIED
:DEGREES
693
root -38.9101 17.7949 3.73674 508.587 -87.3269 -504.511
lowerback -1.85832 0.798998 3.30032
upperback -3.12042 1.00557 3.09353
thorax -2.16247 0.426121 1.33109
lowerneck -4.22087 -0.925306 -5.3415
upperneck -8.81516 -0.608699 13.759
head -1.79528 -0.558951 5.0612
rclavicle 2.88238e-015 -6.36111e-015
rhumerus 25.8792 -3.55425 -81.8887
rradius 68.8243
rwrist -45.9947
rhand -0.89782 -49.1747
rfingers 7.12502
rthumb 24.7301 -437.596
lclavicle 2.88238e-015 -6.36111e-015
lhumerus -20.2372 8.36877 82.6425
lradius 33.8358
lwrist -8.1077
lhand -12.1774 22.5941
lfingers 7.12502
lthumb 13.8861 52.1105
rfemur -25.1875 3.58854 14.9196
rtibia 22.3007
rfoot -1.93036 -11.9781
rtoes 10.0441
lfemur -2.2934 -6.84773 -14.4341
ltibia 35.3827
lfoot -8.18564 -0.0767885
ltoes -18.6705
694
root -39.0583 17.8016 3.67864 501.087 -87.3323 -497.093
lowerback -1.89616 0.83436 3.6131
upperback -3.19943 1.04895 3.09842
thorax -2.21803 0.438067 1.16197
lowerneck -4.04796 -0.775699 -5.21667
upperneck -9.62727 -0.354038 13.8052
head -2.0868 -0.478744 5.06684
rclavicle -6.80837e-015 9.54166e-015
rhumerus 27.3689 -2.77727 -81.3068
rradius 69.6081
rwrist -45.4362
rhand -0.528132 -47.6896
rfingers 7.12502
rthumb 25.0844 -436.062
lclavicle -6.80837e-015 9.54166e-015
lhumerus -20.5279 8.90981 82.5722
lradius 33.4949
lwrist -7.57311
lhand -11.9189 22.65
lfingers 7.12502
lthumb 14.1352 52.1492
rfemur -24.6435 3.7332 15.433
rtibia 22.3669
rfoot -2.06129 -11.9929
rtoes 10.5032
lfemur -2.76924 -6.78948 -13.9415
ltibia 36.7015
lfoot -7.42241 -0.341377
ltoes -18.3795
695
root -39.2064 17.8092 3.6206 493.544 -87.2905 -489.635
lowerback -1.93267 0.869264 3.93008
upperback -3.2765 1.09165 3.10404
thorax -2.27203 0.449238 0.991422
lowerneck -3.9021 -0.628373 -5.09832
upperneck -10.3835 -0.105809 13.8438
head -2.35741 -0.399524 5.07027
rclavicle 6.85807e-015 0
rhumerus 28.8141 -2.0723 -80.7029
rradius 70.293
rwrist -44.847
rhand -0.237373 -46.3436
rfingers 7.12502
rthumb 25.363 -434.677
lclavicle 6.85807e-015 0
lhumerus -20.8311 9.50067 82.4825
lradius 33.1285
lwrist -6.9984
lhand -11.63 22.7009
lfingers 7.12502
lthumb 14.4136 52.1804
rfemur -24.0819 3.85235 15.9702
rtibia 22.4469
rfoot -2.20947 -12.0019
rtoes 10.9514
lfemur -3.27967 -6.72099 -13.4445
ltibia 38.0265
lfoot -6.64219 -0.59594
ltoes -18.03
696
root -39.3543 17.8178 3.56273 486.284 -87.2022 -482.461
lowerback -1.97052 0.904508 4.24861
upperback -3.3512 1.13456 3.11004
thorax -2.32256 0.460185 0.820608
lowerneck -3.77219 -0.484698 -4.98176
upperneck -11.0945 0.134195 13.867
head -2.61198 -0.322545 5.06837
rclavicle 1.04362e-015 -5.96354e-014
rhumerus 30.2036 -1.43461 -80.0815
rradius 70.8851
rwrist -44.2356
rhand -0.0182767 -45.1457
rfingers 7.12502
rthumb 25.5729 -433.449
lclavicle 1.04362e-015 -5.96354e-014
lhumerus -21.1458 10.1432 82.3727
lradius 32.7391
lwrist -6.39269
lhand -11.2958 22.6764
lfingers 7.12502
lthumb 14.7355 52.1327
rfemur -23.5033 3.95181 16.5251
rtibia 22.5309
rfoot -2.37105 -12.0064
rtoes 11.3829
lfemur -3.82558 -6.64141 -12.9473
ltibia 39.3535
lfoot -5.85465 -0.838007
ltoes -17.6162
697
root -39.5018 17.8274 3.50513 479.525 -87.0704 -475.788
lowerback -2.0108 0.940589 4.56842
upperback -3.42303 1.17821 3.11653
thorax -2.36847 0.471234 0.649813
lowerneck -3.66351 -0.345449 -4.86667
upperneck -11.7567 0.364369 13.8745
head -2.84831 -0.247997 5.06091
rclavicle -1.59028e-015 -3.18055e-014
rhumerus 31.5415 -0.862141 -79.4503
rradius 71.3957
rwrist -43.6108
rhand 0.13521 -44.0993
rfingers 7.12502
rthumb 25.7199 -432.381
lclavicle -1.59028e-015 -3.18055e-014
lhumerus -21.4697 10.8364 82.2431
lradius 32.3296
lwrist -5.75991
lhand -10.9575 22.7599
lfingers 7.12502
lthumb 15.0615 52.192
rfemur -22.9089 4.03526 17.0942
rtibia 22.6105
rfoot -2.54339 -12.0086
rtoes 11.7991
lfemur -4.40758 -6.54918 -12.4513
ltibia 40.6777
lfoot -5.07159 -1.06521
ltoes -17.1566
698
root -39.649 17.8377 3.44799 473.416 -86.902 -469.765
lowerback -2.05233 0.977004 4.8872
upperback -3.49202 1.22202 3.1228
thorax -2.41051 0.482178 0.479577
lowerneck -3.57546 -0.21098 -4.75142
upperneck -12.3698 0.583862 13.8655
head -3.06621 -0.176064 5.04724
rclavicle -1.02871e-014 -3.02153e-014
rhumerus 32.8138 -0.347032 -78.812
rradius 71.8349
rwrist -42.9809
rhand 0.234479 -43.1892
rfingers 7.12502
rthumb 25.8149 -431.457
lclavicle -1.02871e-014 -3.02153e-014
lhumerus -21.8023 11.5755 82.0925
lradius 31.9026
lwrist -5.10039
lhand -10.5855 22.8553
lfingers 7.12502
lthumb 15.4198 52.2602
rfemur -22.2966 4.10498 17.6716
rtibia 22.6765
rfoot -2.72486 -12.0104
rtoes 12.2013
lfemur -5.0202 -6.44535 -11.9622
ltibia 41.9888
lfoot -4.30233 -1.27542
ltoes -16.6566
